<svg xmlns="http://www.w3.org/2000/svg" viewBox="0 0 200 55.37"><defs><style>.cls-1{fill:#001e8a;}.cls-2{fill:#e81f38;}</style></defs><g id="Layer_2" data-name="Layer 2"><g id="Layer_1-2" data-name="Layer 1"><path class="cls-1" d="M7.39,27.09l.1,16.22H.11L0,.7H12.85q6,0,9.5,3.37t3.45,9.85q0,6.48-3.45,9.82t-9.5,3.35Zm5.4-6.75a4.8,4.8,0,0,0,4.15-1.85,8,8,0,0,0,1.37-4.89A6.81,6.81,0,0,0,16.94,9a5.2,5.2,0,0,0-4.15-1.58H7.39v12.9Z"/><path class="cls-1" d="M86.18,7.6c-1.36-.11-2.71-.23-4.07-.37q-1.71-.17-3.66-.3C77.14,6.84,76,6.8,74.94,6.8a5.72,5.72,0,0,0-3.64,1,3,3,0,0,0-1.23,2.38,2.55,2.55,0,0,0,.51,1.55,6.42,6.42,0,0,0,1.36,1.34,13.36,13.36,0,0,0,2,1.23c.77.39,1.58.79,2.44,1.18,1.24.57,2.54,1.18,3.88,1.82a18.81,18.81,0,0,1,3.66,2.28,10.87,10.87,0,0,1,2.73,3.15,8.7,8.7,0,0,1,1.07,4.47,16.32,16.32,0,0,1-.59,4.61,7.82,7.82,0,0,1-2,3.45,9.46,9.46,0,0,1-3.85,2.19,20,20,0,0,1-6.05.78c-1,0-2,0-3.11-.08S70,38,68.92,37.9s-2-.23-3-.38-1.77-.3-2.49-.48l.38-6.37c.75.11,1.61.21,2.59.3s2,.17,3,.24,2,.12,3,.16,1.89.05,2.67.05a9.4,9.4,0,0,0,2-.21,4.57,4.57,0,0,0,1.65-.7,3.6,3.6,0,0,0,1.13-1.28,4.26,4.26,0,0,0,.43-2,3.24,3.24,0,0,0-.62-1.9,7.33,7.33,0,0,0-1.61-1.64,13.87,13.87,0,0,0-2.3-1.39c-.87-.43-1.77-.85-2.7-1.28q-1.87-.86-3.72-1.77a16.72,16.72,0,0,1-3.32-2.14,9.74,9.74,0,0,1-2.38-2.92,8.34,8.34,0,0,1-.91-4,12.21,12.21,0,0,1,.64-4,7.7,7.7,0,0,1,2.14-3.24A10.36,10.36,0,0,1,69.51.78a19.74,19.74,0,0,1,6-.78,34.71,34.71,0,0,1,4.84.37q2.54.39,6.08,1Z"/><path class="cls-1" d="M105.67,38.27A16.9,16.9,0,0,1,98.74,37a11,11,0,0,1-4.58-3.72,15.89,15.89,0,0,1-2.54-6A39.07,39.07,0,0,1,90.84,19a37.62,37.62,0,0,1,.8-8.19,16.29,16.29,0,0,1,2.55-5.94,10.67,10.67,0,0,1,4.55-3.61A17.63,17.63,0,0,1,105.67.05a16.27,16.27,0,0,1,6.9,1.32,11.21,11.21,0,0,1,4.61,3.85,16.76,16.76,0,0,1,2.51,6.18,41.44,41.44,0,0,1,.75,8.3,38.28,38.28,0,0,1-.77,8.14,15,15,0,0,1-2.52,5.8,10.5,10.5,0,0,1-4.58,3.48A18.31,18.31,0,0,1,105.67,38.27Zm0-6.79q4.06,0,5.64-2.84c1.06-1.89,1.58-5,1.58-9.21s-.52-7.4-1.58-9.47-2.93-3.11-5.64-3.11a6.93,6.93,0,0,0-3.43.78A5.75,5.75,0,0,0,100,10a11.5,11.5,0,0,0-1.2,3.9,39,39,0,0,0-.35,5.57,37.3,37.3,0,0,0,.35,5.49,10.3,10.3,0,0,0,1.2,3.72,5.38,5.38,0,0,0,2.25,2.14A7.68,7.68,0,0,0,105.67,31.48Z"/><path class="cls-1" d="M175.16.7H200V7.76h-8.67l.11,35.55h-7.29l-.1-35.55h-8.89Z"/><rect class="cls-2" x="163.6" y="0.7" width="7.37" height="7.07"/><path class="cls-1" d="M160.89.7c-.79,3.19-1.72,6.35-2.78,9.45A78.28,78.28,0,0,1,154.44,19a56.14,56.14,0,0,1-4.64,7.8,32.83,32.83,0,0,1-5.66,6.2,25.06,25.06,0,0,1-6.74,4.1,20.73,20.73,0,0,1-7.9,1.49,3,3,0,0,1-1.38-.35,3.88,3.88,0,0,1-1.14-1,4.63,4.63,0,0,1-.75-1.43A5.66,5.66,0,0,1,126,34.1V.7h7V29.16a9.47,9.47,0,0,0,4.94-1.43,20.09,20.09,0,0,0,4.48-3.8,35,35,0,0,0,3.92-5.38,56.57,56.57,0,0,0,3.21-6.18,63.48,63.48,0,0,0,2.39-6.21A51,51,0,0,0,153.42.7Z"/><path class="cls-1" d="M171,10.31H163.6a37.47,37.47,0,0,1-37.47,37.56H66.85a7.15,7.15,0,0,1-7-5.59l-1-4.65h0L50.58.7H45.07Q37.58.7,35.7,7.6L29.26,37l-1.18,5.29a7.21,7.21,0,0,1-.43,1h7.43l1.35-5.68L38,31.26H50L53.49,46a12.23,12.23,0,0,0,11.89,9.39h63.09A42.53,42.53,0,0,0,171,12.73ZM39.5,24.46,42.72,9.37a2.77,2.77,0,0,1,1-1.77,3,3,0,0,1,1.42-.48l3.53,17.34Z"/></g></g></svg>