<?xml version="1.0" encoding="utf-8"?>
<!-- Generator: Adobe Illustrator 26.0.3, SVG Export Plug-In . SVG Version: 6.00 Build 0)  -->
<svg version="1.1" id="Layer_1" xmlns="http://www.w3.org/2000/svg" xmlns:xlink="http://www.w3.org/1999/xlink" x="0px" y="0px"
	 viewBox="0 0 250 110" style="enable-background:new 0 0 250 110;" xml:space="preserve">
<style type="text/css">
	.st0{fill:url(#XMLID_00000114045609284117523030000009127222193993298050_);}
	.st1{fill:url(#XMLID_00000023246691781997721840000004171395829632984996_);}
</style>
<g id="XMLID_00000160170122766313266020000008493062826287252148_">
	<path id="XMLID_00000087390542216202562640000007626855927461781421_" d="M55.4,55.9c0,0.4-0.1,0.8-0.3,1.1
		c-0.2,0.3-0.5,0.6-0.9,0.7c-0.4,0.2-0.8,0.3-1.3,0.3c-0.8,0-1.4-0.3-1.9-0.8c-0.5-0.5-0.7-1.2-0.7-2.2v-0.3c0-0.6,0.1-1.1,0.3-1.5
		c0.2-0.4,0.5-0.8,0.9-1c0.4-0.2,0.8-0.4,1.3-0.4c0.7,0,1.3,0.2,1.8,0.6c0.4,0.4,0.7,0.9,0.8,1.6H54c0-0.4-0.1-0.6-0.3-0.8
		c-0.2-0.2-0.4-0.2-0.8-0.2c-0.4,0-0.6,0.1-0.8,0.4c-0.2,0.3-0.3,0.7-0.3,1.3v0.4c0,0.6,0.1,1.1,0.2,1.4c0.2,0.3,0.4,0.4,0.8,0.4
		c0.3,0,0.6-0.1,0.8-0.2c0.2-0.2,0.3-0.4,0.3-0.7H55.4z"/>
	<path id="XMLID_00000094614019346243678600000002790884776377027971_" d="M60.1,55.4h-2.3v1.4h2.7V58h-4.1v-6h4.1v1.1h-2.7v1.3h2.3
		V55.4z"/>
	<path id="XMLID_00000119828302424194826180000010259377428773661876_" d="M66.4,58H65l-2.1-3.7V58h-1.4v-6h1.4l2.1,3.7V52h1.4V58z"
		/>
	<path id="XMLID_00000121966693825765057400000016897842945516086913_" d="M72.2,53.1h-1.8V58H69v-4.9h-1.8V52h5V53.1z"/>
	<path id="XMLID_00000078034828064003482210000016109985074197787280_" d="M75.4,55.9h-0.8V58h-1.4v-6h2.4c0.7,0,1.3,0.2,1.7,0.5
		c0.4,0.3,0.6,0.8,0.6,1.3c0,0.4-0.1,0.8-0.3,1c-0.2,0.3-0.4,0.5-0.8,0.7l1.3,2.4V58h-1.5L75.4,55.9z M74.6,54.7h0.9
		c0.3,0,0.5-0.1,0.6-0.2c0.1-0.1,0.2-0.3,0.2-0.6c0-0.3-0.1-0.5-0.2-0.6c-0.1-0.1-0.3-0.2-0.6-0.2h-0.9V54.7z"/>
	<path id="XMLID_00000149372206017388276370000012136596013668779670_" d="M82.6,55.4h-2.3v1.4H83V58h-4.1v-6h4.1v1.1h-2.7v1.3h2.3
		V55.4z"/>
	<path id="XMLID_00000023267402412545094390000004297086952874475155_" d="M89.8,55.6h-2.3V58H86v-6h4v1.1h-2.6v1.4h2.3V55.6z"/>
	<path id="XMLID_00000056423662607173234760000005884032736588241050_" d="M96,55.1c0,0.6-0.1,1.1-0.3,1.6c-0.2,0.4-0.5,0.8-0.9,1
		c-0.4,0.2-0.9,0.4-1.4,0.4c-0.5,0-1-0.1-1.4-0.4c-0.4-0.2-0.7-0.6-0.9-1c-0.2-0.4-0.3-0.9-0.3-1.5v-0.3c0-0.6,0.1-1.1,0.3-1.6
		c0.2-0.4,0.5-0.8,0.9-1c0.4-0.2,0.9-0.4,1.4-0.4c0.5,0,1,0.1,1.4,0.4c0.4,0.2,0.7,0.6,0.9,1c0.2,0.4,0.3,1,0.3,1.5V55.1z
		 M94.5,54.8c0-0.6-0.1-1-0.3-1.4C94,53.2,93.8,53,93.4,53c-0.7,0-1.1,0.5-1.1,1.6l0,0.4c0,0.6,0.1,1,0.3,1.4
		c0.2,0.3,0.5,0.5,0.9,0.5c0.4,0,0.6-0.2,0.8-0.5c0.2-0.3,0.3-0.8,0.3-1.3V54.8z"/>
	<path id="XMLID_00000162351191998169639760000000804383180013593987_" d="M99.3,55.9h-0.8V58H97v-6h2.4c0.7,0,1.3,0.2,1.7,0.5
		c0.4,0.3,0.6,0.8,0.6,1.3c0,0.4-0.1,0.8-0.3,1c-0.2,0.3-0.4,0.5-0.8,0.7l1.3,2.4V58h-1.5L99.3,55.9z M98.5,54.7h0.9
		c0.3,0,0.5-0.1,0.6-0.2c0.1-0.1,0.2-0.3,0.2-0.6c0-0.3-0.1-0.5-0.2-0.6c-0.1-0.1-0.3-0.2-0.6-0.2h-0.9V54.7z"/>
	<path id="XMLID_00000091010643312567867520000014536089525873925547_" d="M108,56.4c0-0.2-0.1-0.4-0.2-0.5
		c-0.1-0.1-0.4-0.2-0.8-0.4c-0.4-0.1-0.7-0.2-0.9-0.4c-0.8-0.4-1.2-0.9-1.2-1.6c0-0.3,0.1-0.6,0.3-0.9c0.2-0.3,0.5-0.5,0.8-0.6
		c0.4-0.1,0.8-0.2,1.2-0.2c0.4,0,0.8,0.1,1.2,0.2c0.3,0.2,0.6,0.4,0.8,0.7c0.2,0.3,0.3,0.6,0.3,1H108c0-0.2-0.1-0.4-0.2-0.6
		c-0.1-0.1-0.4-0.2-0.6-0.2c-0.3,0-0.5,0.1-0.6,0.2c-0.1,0.1-0.2,0.3-0.2,0.4c0,0.2,0.1,0.3,0.2,0.4c0.2,0.1,0.5,0.3,0.9,0.4
		s0.8,0.3,1,0.4c0.6,0.4,1,0.9,1,1.5c0,0.5-0.2,0.9-0.6,1.2c-0.4,0.3-0.9,0.4-1.6,0.4c-0.5,0-0.9-0.1-1.3-0.3
		c-0.4-0.2-0.7-0.4-0.9-0.7c-0.2-0.3-0.3-0.7-0.3-1h1.4c0,0.3,0.1,0.6,0.2,0.7c0.2,0.2,0.4,0.2,0.8,0.2c0.2,0,0.4-0.1,0.6-0.2
		C108,56.7,108,56.6,108,56.4z"/>
	<path id="XMLID_00000170956957767743571240000008328087283634784957_" d="M115.3,55.9c0,0.4-0.1,0.8-0.3,1.1
		c-0.2,0.3-0.5,0.6-0.9,0.7c-0.4,0.2-0.8,0.3-1.3,0.3c-0.8,0-1.4-0.3-1.9-0.8c-0.5-0.5-0.7-1.2-0.7-2.2v-0.3c0-0.6,0.1-1.1,0.3-1.5
		c0.2-0.4,0.5-0.8,0.9-1c0.4-0.2,0.8-0.4,1.3-0.4c0.7,0,1.3,0.2,1.8,0.6c0.4,0.4,0.7,0.9,0.8,1.6h-1.4c0-0.4-0.1-0.6-0.3-0.8
		c-0.2-0.2-0.4-0.2-0.8-0.2c-0.4,0-0.6,0.1-0.8,0.4c-0.2,0.3-0.3,0.7-0.3,1.3v0.4c0,0.6,0.1,1.1,0.2,1.4c0.2,0.3,0.4,0.4,0.8,0.4
		c0.3,0,0.6-0.1,0.8-0.2c0.2-0.2,0.3-0.4,0.3-0.7H115.3z"/>
	<path id="XMLID_00000042721846724854117210000006944877684097601182_" d="M117.9,58h-1.4v-6h1.4V58z"/>
	<path id="XMLID_00000099655794464593908420000014347005560023035528_" d="M122.9,55.4h-2.3v1.4h2.7V58h-4.1v-6h4.1v1.1h-2.7v1.3
		h2.3V55.4z"/>
	<path id="XMLID_00000026874333572463860500000006661963174285295034_" d="M129.2,58h-1.4l-2.1-3.7V58h-1.4v-6h1.4l2.1,3.7V52h1.4
		V58z"/>
	<path id="XMLID_00000096738923849099174880000004307894565163983751_" d="M135,53.1h-1.8V58h-1.4v-4.9H130V52h5V53.1z"/>
	<path id="XMLID_00000036243897742765665870000000619447463468106130_" d="M137.4,58H136v-6h1.4V58z"/>
	<path id="XMLID_00000031177892250261809160000004659103797561369258_" d="M142.5,55.6h-2.3V58h-1.4v-6h4v1.1h-2.6v1.4h2.3V55.6z"/>
	<path id="XMLID_00000084501225920591300820000001949466394824401583_" d="M145.2,58h-1.4v-6h1.4V58z"/>
	<path id="XMLID_00000083782560556812902700000001056719680643229606_" d="M151.3,55.9c0,0.4-0.1,0.8-0.3,1.1
		c-0.2,0.3-0.5,0.6-0.9,0.7c-0.4,0.2-0.8,0.3-1.3,0.3c-0.8,0-1.4-0.3-1.9-0.8c-0.5-0.5-0.7-1.2-0.7-2.2v-0.3c0-0.6,0.1-1.1,0.3-1.5
		c0.2-0.4,0.5-0.8,0.9-1c0.4-0.2,0.8-0.4,1.3-0.4c0.7,0,1.3,0.2,1.8,0.6c0.4,0.4,0.7,0.9,0.8,1.6h-1.4c0-0.4-0.1-0.6-0.3-0.8
		c-0.2-0.2-0.4-0.2-0.8-0.2c-0.4,0-0.6,0.1-0.8,0.4c-0.2,0.3-0.3,0.7-0.3,1.3v0.4c0,0.6,0.1,1.1,0.2,1.4c0.2,0.3,0.4,0.4,0.8,0.4
		c0.3,0,0.6-0.1,0.8-0.2c0.2-0.2,0.3-0.4,0.3-0.7H151.3z"/>
	<path id="XMLID_00000180330533723773794530000009087903313391523260_" d="M159.5,55.1c0,0.6-0.1,1.1-0.3,1.6
		c-0.2,0.4-0.5,0.8-0.9,1c-0.4,0.2-0.9,0.4-1.4,0.4c-0.5,0-1-0.1-1.4-0.4c-0.4-0.2-0.7-0.6-0.9-1c-0.2-0.4-0.3-0.9-0.3-1.5v-0.3
		c0-0.6,0.1-1.1,0.3-1.6c0.2-0.4,0.5-0.8,0.9-1c0.4-0.2,0.9-0.4,1.4-0.4c0.5,0,1,0.1,1.4,0.4c0.4,0.2,0.7,0.6,0.9,1
		c0.2,0.4,0.3,1,0.3,1.5V55.1z M158,54.8c0-0.6-0.1-1-0.3-1.4c-0.2-0.3-0.5-0.5-0.9-0.5c-0.7,0-1.1,0.5-1.1,1.6l0,0.4
		c0,0.6,0.1,1,0.3,1.4c0.2,0.3,0.5,0.5,0.9,0.5c0.4,0,0.6-0.2,0.8-0.5c0.2-0.3,0.3-0.8,0.3-1.3V54.8z"/>
	<path id="XMLID_00000097476720825518409390000007431171124220919736_" d="M165.2,52v3.9c0,0.4-0.1,0.8-0.3,1.2
		c-0.2,0.3-0.5,0.6-0.8,0.7c-0.4,0.2-0.8,0.3-1.3,0.3c-0.7,0-1.3-0.2-1.7-0.6c-0.4-0.4-0.6-0.9-0.6-1.6V52h1.5v4c0,0.7,0.3,1,0.9,1
		c0.3,0,0.5-0.1,0.7-0.2c0.2-0.2,0.2-0.4,0.2-0.8V52H165.2z"/>
	<path id="XMLID_00000111906421655730483960000015365393118353921980_" d="M171.1,53.1h-1.8V58h-1.4v-4.9h-1.8V52h5V53.1z"/>
	<path id="XMLID_00000052782613192731264860000000435323983994872193_" d="M174.2,55.9h-0.8V58H172v-6h2.4c0.7,0,1.3,0.2,1.7,0.5
		c0.4,0.3,0.6,0.8,0.6,1.3c0,0.4-0.1,0.8-0.3,1c-0.2,0.3-0.4,0.5-0.8,0.7l1.3,2.4V58h-1.5L174.2,55.9z M173.4,54.7h0.9
		c0.3,0,0.5-0.1,0.6-0.2c0.1-0.1,0.2-0.3,0.2-0.6c0-0.3-0.1-0.5-0.2-0.6c-0.1-0.1-0.3-0.2-0.6-0.2h-0.9V54.7z"/>
	<path id="XMLID_00000112617993031305988020000001919282777084928427_" d="M181.5,55.4h-2.3v1.4h2.7V58h-4.1v-6h4.1v1.1h-2.7v1.3
		h2.3V55.4z"/>
	<path id="XMLID_00000083771838340812174330000012310744080319367590_" d="M186.2,56.9h-2l-0.3,1.1h-1.5l2.2-6h1.4l2.2,6h-1.6
		L186.2,56.9z M184.6,55.7h1.3l-0.6-2.1L184.6,55.7z"/>
	<path id="XMLID_00000164475405284799013730000001663551236689107615_" d="M193.6,55.9c0,0.4-0.1,0.8-0.3,1.1
		c-0.2,0.3-0.5,0.6-0.9,0.7c-0.4,0.2-0.8,0.3-1.3,0.3c-0.8,0-1.4-0.3-1.9-0.8c-0.5-0.5-0.7-1.2-0.7-2.2v-0.3c0-0.6,0.1-1.1,0.3-1.5
		c0.2-0.4,0.5-0.8,0.9-1c0.4-0.2,0.8-0.4,1.3-0.4c0.7,0,1.3,0.2,1.8,0.6c0.4,0.4,0.7,0.9,0.8,1.6h-1.4c0-0.4-0.1-0.6-0.3-0.8
		c-0.2-0.2-0.4-0.2-0.8-0.2c-0.4,0-0.6,0.1-0.8,0.4c-0.2,0.3-0.3,0.7-0.3,1.3v0.4c0,0.6,0.1,1.1,0.2,1.4c0.2,0.3,0.4,0.4,0.8,0.4
		c0.3,0,0.6-0.1,0.8-0.2c0.2-0.2,0.3-0.4,0.3-0.7H193.6z"/>
	<path id="XMLID_00000148627408508859499700000012674375762440651175_" d="M199.6,58h-1.4v-2.5H196V58h-1.4v-6h1.4v2.4h2.1V52h1.4
		V58z"/>
</g>
<g id="XMLID_00000011723857038912003580000005632342184184227516_">
	
		<linearGradient id="XMLID_00000168825343137827336920000010727396039475829166_" gradientUnits="userSpaceOnUse" x1="25.8478" y1="55" x2="216.7924" y2="55">
		<stop  offset="0" style="stop-color:#2CACB7"/>
		<stop  offset="1" style="stop-color:#0874BB"/>
	</linearGradient>
	
		<path id="XMLID_00000181804741916330720700000014194132748144103354_" style="fill:url(#XMLID_00000168825343137827336920000010727396039475829166_);" d="
		M129.1,61.2c0.6,0.2,1.1,0.5,1.5,1c0.9,0.8,1.3,1.9,1.3,3.2c0,1.1-0.3,2-1,2.8c-0.4,0.5-1,0.8-1.7,1.1c-0.7,0.3-1.7,0.4-3,0.4
		l-68-0.1c-3.3-0.4-5.8-0.8-7.8-1.6c-2-0.8-3.7-2-5-3.4c-1.2-1.2-2.2-2.7-2.8-4.3c-0.7-1.6-1-3.4-1-5.2c0-2,0.4-3.9,1.2-5.7
		c0.8-1.8,1.9-3.3,3.3-4.6c1.3-1.2,2.9-2.1,4.7-2.8c1.8-0.7,4.1-1.1,6.9-1.1h23.5c0.2-2.5,0.8-5,1.8-7.3c1.2-2.8,3-5.3,5.2-7.5
		c0.4-0.4,0.8-0.7,1.2-1.1H57.8c-5,0-9.4,0.7-13.1,2.1c-3.7,1.4-7,3.3-9.7,5.8c-3.1,2.8-5.5,6.1-7.3,9.9C25.9,46.5,25,50.6,25,55
		c0,4,0.7,7.7,2.1,11.1c1.4,3.4,3.3,6.5,5.8,9.1c2.9,3,6.3,5.4,10.4,7.1c4.1,1.7,8.9,2.6,14.4,2.6h71.3c3.7,0,6.7-0.6,9.3-1.7
		c2.5-1.1,4.6-2.6,6.3-4.5c1.4-1.6,2.5-3.4,3.3-5.4c0.8-2,1.2-4.1,1.2-6.3c0-2-0.4-4-1.1-5.8H129.1z"/>
	
		<linearGradient id="XMLID_00000039855768671702822580000000138202033437927818_" gradientUnits="userSpaceOnUse" x1="24.7023" y1="55" x2="221.3538" y2="55">
		<stop  offset="0" style="stop-color:#2CACB7"/>
		<stop  offset="1" style="stop-color:#0874BB"/>
	</linearGradient>
	
		<path id="XMLID_00000151516284999663857140000009538283614769285544_" style="fill:url(#XMLID_00000039855768671702822580000000138202033437927818_);" d="
		M222.4,42.8c-1.8-3.8-4.2-7.1-7.3-9.9c-2.7-2.5-6-4.4-9.7-5.8c-3.7-1.4-8.1-2.1-13.1-2.1h-4.9h-78.2c-4.1,0-7.5,0.5-9.9,1.5
		c-2.5,1-4.6,2.3-6.2,3.9C91.3,32.1,90,34,89,36.1c-0.9,2.1-1.4,4.4-1.4,6.8c0,2.1,0.3,4,1,5.8H107c-0.2-0.1-0.4-0.2-0.6-0.4
		c-1-0.8-1.6-1.9-1.6-3.2c0-1.2,0.4-2.3,1.3-3.1c0.4-0.4,0.8-0.6,1.4-0.8c0.6-0.2,1.4-0.3,2.4-0.3h48.2c-0.3,0.6-0.7,1.2-1,1.9
		c-0.9,1.9-1.6,3.9-2,6h17.5c0.8-1.5,1.8-2.8,3-3.9c1.3-1.2,2.9-2.1,4.7-2.8c1.8-0.7,4.1-1.1,6.9-1.1h4.9c2.8,0,5.1,0.4,6.9,1.1
		c1.8,0.7,3.4,1.7,4.7,2.8c1.4,1.3,2.5,2.8,3.3,4.6c0.8,1.8,1.2,3.7,1.2,5.7c0,1.8-0.3,3.6-1,5.2c-0.7,1.6-1.6,3.1-2.8,4.3
		c-1.3,1.4-3,2.5-5,3.4c-2,0.8-4.5,1.2-7.4,1.2h-4.9c-2.9,0-5.4-0.4-7.4-1.2c-2-0.8-3.7-2-5-3.4c-1-1-1.8-2.1-2.4-3.4h-17.3
		c0.3,1.7,0.8,3.3,1.5,4.9c1.4,3.4,3.3,6.5,5.8,9.1c2.9,3,6.3,5.4,10.4,7.1c4.1,1.7,8.9,2.6,14.4,2.6h4.9c5.5,0,10.3-0.9,14.4-2.6
		c4.1-1.7,7.5-4.1,10.4-7.1c2.5-2.7,4.4-5.7,5.8-9.1c1.4-3.4,2.1-7.1,2.1-11.1C225,50.6,224.1,46.5,222.4,42.8z"/>
</g>
</svg>
